<svg width="20" height="20" viewBox="0 0 20 20" fill="none" xmlns="http://www.w3.org/2000/svg">
<g clip-path="url(#clip0_425_304)">
<path d="M10 20C15.5228 20 20 15.5228 20 10C20 4.47715 15.5228 0 10 0C4.47715 0 0 4.47715 0 10C0 15.5228 4.47715 20 10 20Z" fill="#A1A1AA"/>
<path d="M12.5139 10.3915H10.7295V16.9286H8.02602V10.3915H6.74023V8.09411H8.02602V6.60742C8.02602 5.54428 8.53103 3.87952 10.7536 3.87952L12.7561 3.88789V6.11792H11.3031C11.0648 6.11792 10.7297 6.237 10.7297 6.74415V8.09624H12.7501L12.5139 10.3915Z" fill="white"/>
</g>
<defs>
<clipPath id="clip0_425_304">
<rect width="20" height="20" fill="white"/>
</clipPath>
</defs>
</svg>
