<svg width="14" height="14" viewBox="0 0 14 14" fill="none" xmlns="http://www.w3.org/2000/svg">
<path d="M11.375 5.6875C11.375 6.94258 10.9676 8.10195 10.2813 9.04258L13.743 12.507C14.0848 12.8488 14.0848 13.4039 13.743 13.7457C13.4012 14.0875 12.8461 14.0875 12.5043 13.7457L9.04258 10.2812C8.10195 10.9703 6.94258 11.375 5.6875 11.375C2.5457 11.375 0 8.8293 0 5.6875C0 2.5457 2.5457 0 5.6875 0C8.8293 0 11.375 2.5457 11.375 5.6875ZM5.6875 9.625C7.86133 9.625 9.625 7.86133 9.625 5.6875C9.625 3.51367 7.86133 1.75 5.6875 1.75C3.51367 1.75 1.75 3.51367 1.75 5.6875C1.75 7.86133 3.51367 9.625 5.6875 9.625Z" fill="#A1A1AA"/>
</svg>
