<svg width="30" height="30" viewBox="0 0 30 30" fill="none" xmlns="http://www.w3.org/2000/svg">
<g clip-path="url(#clip0_408_1647)">
<path d="M12.8321 17.2961C11.6834 17.8234 10.4104 18.1249 9.06262 18.1249C4.05747 18.1249 0 14.0674 0 9.06262C0 4.05747 4.05747 -8.49366e-07 9.06262 -8.49366e-07C10.4104 -8.49366e-07 11.6832 0.301464 12.8321 0.828735C10.7006 2.92727 9.375 5.84209 9.375 9.06262C9.375 12.2827 10.7006 15.1976 12.8321 17.2961Z" fill="#27272A"/>
<path d="M29.1711 12.8333C27.0726 10.7007 24.1578 9.37497 20.9373 9.37497C17.7172 9.37497 14.8023 10.7006 12.7037 12.8333C12.1765 11.6835 11.875 10.4104 11.875 9.0626C11.875 4.05745 15.9325 -2.5183e-05 20.9373 -2.5183e-05C25.9424 -2.5183e-05 29.9999 4.05745 29.9999 9.0626C29.9999 10.4103 29.6984 11.6831 29.1711 12.8333Z" fill="#27272A"/>
<path d="M20.9372 30C19.5894 30 18.3166 29.6985 17.1665 29.1713C19.2991 27.0728 20.6248 24.1579 20.6248 20.9374C20.6248 17.7173 19.2992 14.8024 17.1665 12.7039C18.3163 12.1766 19.5894 11.8751 20.9372 11.8751C25.9423 11.8751 29.9998 15.9326 29.9998 20.9374C29.9998 25.9425 25.9423 30 20.9372 30Z" fill="#27272A"/>
<path d="M9.06262 30C4.05747 30 0 25.9425 0 20.9374C0 19.5896 0.301465 18.3168 0.828735 17.1679C2.92727 19.2994 5.84209 20.625 9.06262 20.625C12.2827 20.625 15.1976 19.2994 17.2961 17.1679C17.8234 18.3166 18.1249 19.5896 18.1249 20.9374C18.1249 25.9425 14.0674 30 9.06262 30Z" fill="#27272A"/>
</g>
<defs>
<clipPath id="clip0_408_1647">
<rect width="30" height="30" fill="white" transform="matrix(1 0 0 -1 0 30)"/>
</clipPath>
</defs>
</svg>
