<svg width="18" height="18" viewBox="0 0 18 18" fill="none" xmlns="http://www.w3.org/2000/svg">
<g clip-path="url(#clip0_425_309)">
<path d="M0 9C0 4.0374 4.0374 0 9 0C11.0043 0 12.9013 0.644829 14.4861 1.8648L12.3946 4.5816C11.4147 3.82731 10.2409 3.42857 9 3.42857C5.92791 3.42857 3.42857 5.92791 3.42857 9C3.42857 12.0721 5.92791 14.5714 9 14.5714C11.4743 14.5714 13.577 12.9503 14.3016 10.7143H9V7.28571H18V9C18 13.9626 13.9626 18 9 18C4.0374 18 0 13.9626 0 9Z" fill="#A1A1AA"/>
</g>
<defs>
<clipPath id="clip0_425_309">
<rect width="18" height="18" fill="white"/>
</clipPath>
</defs>
</svg>
