<svg width="16" height="18" viewBox="0 0 16 18" fill="none" xmlns="http://www.w3.org/2000/svg">
<path d="M9.00001 1.125V1.75359C11.5488 2.15824 13.5 4.36641 13.5 7.03125V8.20547C13.5 9.80156 14.0449 11.352 15.0398 12.6L15.5637 13.2539C15.7676 13.507 15.8063 13.8551 15.6656 14.1469C15.525 14.4387 15.2297 14.625 14.9063 14.625H0.843756C0.519264 14.625 0.223776 14.4387 0.0832916 14.1469C-0.0572279 13.8551 -0.0177123 13.507 0.184928 13.2539L0.709108 12.6C1.70649 11.352 2.25001 9.80156 2.25001 8.20547V7.03125C2.25001 4.36641 4.20118 2.15824 6.75001 1.75359V1.125C6.75001 0.503789 7.25274 0 7.87501 0C8.49727 0 9.00001 0.503789 9.00001 1.125ZM7.59376 3.375C5.57579 3.375 3.93751 5.01328 3.93751 7.03125V8.20547C3.93751 9.88945 3.44954 11.5312 2.54215 12.9375H13.2082C12.3012 11.5312 11.8125 9.88945 11.8125 8.20547V7.03125C11.8125 5.01328 10.1742 3.375 8.15626 3.375H7.59376ZM10.125 15.75C10.125 16.316 9.88946 16.9207 9.46758 17.3426C9.04571 17.7645 8.44102 18 7.87501 18C7.27735 18 6.7043 17.7645 6.28243 17.3426C5.86055 16.9207 5.62501 16.316 5.62501 15.75H10.125Z" fill="#52525B"/>
</svg>
